{
  "accessors": [
    {
      "bufferView": 2,
      "componentType": 5126,
      "count": 769,
      "max": [
        34.505157470703125,
        45.845375061035156,
        115.92385864257813
      ],
      "min": [
        -36.91618728637695,
        -87.66120147705078,
        -2.7998061180114746
      ],
      "type": "VEC3"
    },
    {
      "bufferView": 2,
      "byteOffset": 9228,
      "componentType": 5126,
      "count": 769,
      "max": [
        0.9997528791427612,
        0.9974676370620728,
        0.9989290237426758
      ],
      "min": [
        -0.9976765513420105,
        -0.9966846704483032,
        -0.999086856842041
      ],
      "type": "VEC3"
    },
    {
      "bufferView": 1,
      "componentType": 5126,
      "count": 769,
      "max": [
        0.9608539938926697,
        1.1024730205535889
      ],
      "min": [
        0.0135690001770854,
        -0.6924399733543396
      ],
      "type": "VEC2"
    },
    {
      "bufferView": 0,
      "componentType": 5125,
      "count": 2514,
      "type": "SCALAR"
    }
  ],
  "asset": {
    "extras": {
      "author": "tirrellclark.75 (https://sketchfab.com/tirrellclark.75)",
      "license": "CC-BY-4.0 (http://creativecommons.org/licenses/by/4.0/)",
      "source": "https://sketchfab.com/3d-models/koopa-70109f3b95a74f058ed25842faed83d3",
      "title": "Koopa"
    },
    "generator": "Sketchfab-15.37.0",
    "version": "2.0"
  },
  "bufferViews": [
    {
      "buffer": 0,
      "byteLength": 10056,
      "name": "floatBufferViews",
      "target": 34963
    },
    {
      "buffer": 0,
      "byteLength": 6152,
      "byteOffset": 10056,
      "byteStride": 8,
      "name": "floatBufferViews",
      "target": 34962
    },
    {
      "buffer": 0,
      "byteLength": 18456,
      "byteOffset": 16208,
      "byteStride": 12,
      "name": "floatBufferViews",
      "target": 34962
    }
  ],
  "buffers": [
    {
      "byteLength": 34664,
      "uri": "scene.bin"
    }
  ],
  "images": [
    {
      "uri": "textures/green_baseColor.png"
    }
  ],
  "materials": [
    {
      "doubleSided": true,
      "name": "green",
      "pbrMetallicRoughness": {
        "baseColorTexture": {
          "index": 0
        },
        "metallicFactor": 0.0
      }
    }
  ],
  "meshes": [
    {
      "name": "Object_0",
      "primitives": [
        {
          "attributes": {
            "NORMAL": 1,
            "POSITION": 0,
            "TEXCOORD_0": 2
          },
          "indices": 3,
          "material": 0,
          "mode": 4
        }
      ]
    }
  ],
  "nodes": [
    {
      "children": [
        1
      ],
      "matrix": [
        1.0,
        0.0,
        0.0,
        0.0,
        0.0,
        2.220446049250313e-16,
        -1.0,
        0.0,
        0.0,
        1.0,
        2.220446049250313e-16,
        0.0,
        0.0,
        0.0,
        0.0,
        1.0
      ],
      "name": "Sketchfab_model"
    },
    {
      "children": [
        2
      ],
      "name": "koopa.obj.cleaner.materialmerger.gles"
    },
    {
      "mesh": 0,
      "name": "Object_2"
    }
  ],
  "samplers": [
    {
      "magFilter": 9729,
      "minFilter": 9987,
      "wrapS": 10497,
      "wrapT": 10497
    }
  ],
  "scene": 0,
  "scenes": [
    {
      "name": "Sketchfab_Scene",
      "nodes": [
        0
      ]
    }
  ],
  "textures": [
    {
      "sampler": 0,
      "source": 0
    }
  ]
}
